<svg xmlns="http://www.w3.org/2000/svg" viewBox="0 0 256 256"><defs><filter id="s" x="-30%" y="-30%" width="160%" height="180%"><feDropShadow dx="0" dy="10" stdDeviation="8" flood-color="#07121e" flood-opacity=".28"/></filter></defs><g filter="url(#s)" stroke="#24344a" stroke-width="8" stroke-linejoin="round"><ellipse cx="128" cy="225" rx="100" ry="18" fill="#07121e" opacity=".2" stroke="none"/><rect x="39" y="111" width="178" height="93" rx="10" fill="#7e90aa"/><rect x="74" y="58" width="108" height="122" rx="10" fill="#899bb5"/><rect x="24" y="94" width="55" height="110" rx="10" fill="#71839e"/><rect x="177" y="94" width="55" height="110" rx="10" fill="#71839e"/><path d="M25 92h54M177 92h55M74 58h108" stroke="#b5c1d2" stroke-width="13"/><path d="M25 70h17v25H25Zm27 0h17v25H52Zm126 0h17v25h-17Zm27 0h17v25h-17ZM78 34h18v26H78Zm29 0h18v26h-18Zm29 0h18v26h-18Zm29 0h18v26h-18Z" fill="#52647d" stroke="none"/><rect x="105" y="148" width="46" height="56" rx="20" fill="#26354a"/><rect x="95" y="145" width="66" height="14" rx="7" fill="#ca603d"/><rect x="118" y="149" width="20" height="7" rx="3" fill="#f3b750" stroke="none"/></g><path d="M50 66V28M206 66V28" stroke="#33445b" stroke-width="8"/><path d="M53 28h47l-12 15H53ZM203 28h-47l12 15h35Z" fill="#d45b3f"/></svg>